solid HybridBody.1
 facet normal        0        0       -1
  outer loop
   vertex        0  25.0128  18.1065
   vertex        0  37.0128  18.1065
   vertex       30  37.0128  18.1065
  endloop
 endfacet
 facet normal        0       -0       -1
  outer loop
   vertex       30  37.0128  18.1065
   vertex       30  25.0128  18.1065
   vertex        0  25.0128  18.1065
  endloop
 endfacet
 facet normal        0        1        0
  outer loop
   vertex        0  37.0128  18.1065
   vertex        0  37.0128  20.4065
   vertex       30  37.0128  20.4065
  endloop
 endfacet
 facet normal        0        1        0
  outer loop
   vertex       30  37.0128  20.4065
   vertex       30  37.0128  18.1065
   vertex        0  37.0128  18.1065
  endloop
 endfacet
 facet normal        0        0        1
  outer loop
   vertex       30  37.0128  20.4065
   vertex        0  37.0128  20.4065
   vertex        0  25.0128  20.4065
  endloop
 endfacet
 facet normal        0        0        1
  outer loop
   vertex        0  25.0128  20.4065
   vertex       30  25.0128  20.4065
   vertex       30  37.0128  20.4065
  endloop
 endfacet
 facet normal       -0       -1        0
  outer loop
   vertex       30  25.0128  20.4065
   vertex        0  25.0128  20.4065
   vertex        0  25.0128  18.1065
  endloop
 endfacet
 facet normal        0       -1        0
  outer loop
   vertex        0  25.0128  18.1065
   vertex       30  25.0128  18.1065
   vertex       30  25.0128  20.4065
  endloop
 endfacet
 facet normal       -1        0       -0
  outer loop
   vertex        0  37.0128  20.4065
   vertex        0  37.0128  18.1065
   vertex        0  25.0128  18.1065
  endloop
 endfacet
 facet normal       -1        0        0
  outer loop
   vertex        0  25.0128  18.1065
   vertex        0  25.0128  20.4065
   vertex        0  37.0128  20.4065
  endloop
 endfacet
 facet normal        1        0        0
  outer loop
   vertex       30  25.0128  18.1065
   vertex       30  37.0128  18.1065
   vertex       30  37.0128  20.4065
  endloop
 endfacet
 facet normal        1        0        0
  outer loop
   vertex       30  37.0128  20.4065
   vertex       30  25.0128  20.4065
   vertex       30  25.0128  18.1065
  endloop
 endfacet
endsolid HybridBody.1 written by HOOPS Exchange
